<?xml version="1.0" encoding="UTF-8" standalone="no"?>
<svg width="15px" height="15px" viewBox="0 0 15 15" version="1.1" xmlns="http://www.w3.org/2000/svg" xmlns:xlink="http://www.w3.org/1999/xlink">
    <!-- Generator: Sketch 41.2 (35397) - http://www.bohemiancoding.com/sketch -->
    <title>Shape</title>
    <desc>Created with Sketch.</desc>
    <defs></defs>
    <g id="design" stroke="none" stroke-width="1" fill="none" fill-rule="evenodd">
        <g id="Site_1.0-Copy-4" transform="translate(-1206.000000, -769.000000)" fill="#AAAAAA">
            <g id="Social-Icons" transform="translate(1174.000000, 769.000000)">
                <g id="dribbble-icon" transform="translate(32.000000, 0.000000)">
                    <path d="M0,7.5 C0,6.139995 0.33501,4.885005 1.005,3.735 C1.675005,2.584995 2.58501,1.675005 3.735,1.005 C4.885005,0.334995 6.14001,0 7.5,0 C8.860005,0 10.11501,0.334995 11.265,1.005 C12.415005,1.675005 13.32501,2.584995 13.995,3.735 C14.665005,4.885005 15,6.139995 15,7.5 C15,8.860005 14.665005,10.114995 13.995,11.265 C13.32501,12.415005 12.415005,13.324995 11.265,13.995 C10.11501,14.665005 8.860005,15 7.5,15 C6.14001,15 4.885005,14.665005 3.735,13.995 C2.58501,13.324995 1.675005,12.415005 1.005,11.265 C0.33501,10.114995 0,8.860005 0,7.5 Z M1.245,7.5 C1.245,9.06 1.77,10.435005 2.82,11.625 C3.3,10.684995 4.060005,9.790005 5.1,8.94 C6.14001,8.089995 7.155,7.555005 8.145,7.335 C7.995,6.985005 7.85001,6.670005 7.71,6.39 C5.99001,6.940005 4.13001,7.215 2.13,7.215 C1.74,7.215 1.450005,7.210005 1.26,7.2 C1.26,7.240005 1.25751,7.29 1.2525,7.35 C1.247505,7.41 1.245,7.459995 1.245,7.5 Z M1.44,5.955 C1.660005,5.974995 1.98501,5.985 2.415,5.985 C4.08501,5.985 5.67,5.76 7.17,5.31 C6.41001,3.96 5.575005,2.835 4.665,1.935 C3.87501,2.335005 3.197505,2.890005 2.6325,3.6 C2.06751,4.309995 1.67001,5.095005 1.44,5.955 Z M3.675,12.435 C4.80501,13.315005 6.08001,13.755 7.5,13.755 C8.24001,13.755 8.97501,13.615005 9.705,13.335 C9.505005,11.625 9.115005,9.970005 8.535,8.37 C7.615005,8.569995 6.68751,9.075 5.7525,9.885 C4.817505,10.695 4.125,11.545005 3.675,12.435 Z M5.97,1.455 C6.850005,2.365005 7.665,3.499995 8.415,4.86 C9.775005,4.29 10.8,3.565005 11.49,2.685 C10.330005,1.725 9,1.245 7.5,1.245 C6.99,1.245 6.48,1.315005 5.97,1.455 Z M8.955,5.925 C9.105,6.244995 9.27501,6.649995 9.465,7.14 C10.20501,7.069995 11.01,7.035 11.88,7.035 C12.50001,7.035 13.11501,7.05 13.725,7.08 C13.645005,5.719995 13.155,4.510005 12.255,3.45 C11.605005,4.420005 10.50501,5.245005 8.955,5.925 Z M9.84,8.19 C10.35,9.670005 10.695,11.19 10.875,12.75 C11.665005,12.24 12.310005,11.584995 12.81,10.785 C13.31001,9.985005 13.61001,9.12 13.71,8.19 C12.98001,8.140005 12.315,8.115 11.715,8.115 C11.16501,8.115 10.540005,8.140005 9.84,8.19 Z" id="Shape"></path>
                </g>
            </g>
        </g>
    </g>
</svg>