<?xml version="1.0" encoding="UTF-8" standalone="no"?>
<svg width="13px" height="14px" viewBox="0 0 13 14" version="1.1" xmlns="http://www.w3.org/2000/svg" xmlns:xlink="http://www.w3.org/1999/xlink">
    <!-- Generator: Sketch 41.2 (35397) - http://www.bohemiancoding.com/sketch -->
    <title>Inst Icon</title>
    <desc>Created with Sketch.</desc>
    <defs></defs>
    <g id="design" stroke="none" stroke-width="1" fill="none" fill-rule="evenodd">
        <g id="Site_1.0-Copy-4" transform="translate(-1246.000000, -769.000000)" fill="#AAAAAA">
            <g id="Social-Icons" transform="translate(1174.000000, 769.000000)">
                <path d="M83.6736,0.4 L73.1264,0.4 C72.512,0.4 72,0.912 72,1.5264 L72,4.6624 L76.2624,4.6624 C76.9024,4.2016 77.5808,3.8048 78.4,3.8048 C79.1936,3.8048 79.9104,4.2016 80.5376,4.6624 L84.8,4.6624 L84.8,1.5264 C84.8,0.912 84.288,0.4 83.6736,0.4 L83.6736,0.4 Z M83.9424,3.3696 C83.9424,3.6128 83.7504,3.8176 83.5072,3.8176 L81.8304,3.8176 C81.5872,3.8176 81.3824,3.6128 81.3824,3.3696 L81.3824,1.6928 C81.3824,1.4496 81.5872,1.2576 81.8304,1.2576 L83.5072,1.2576 C83.7504,1.2576 83.9424,1.4496 83.9424,1.6928 L83.9424,3.3696 Z M80.5376,7.2224 C80.5376,6.0448 79.5776,5.0976 78.4,5.0976 C77.2224,5.0976 76.2624,6.0448 76.2624,7.2224 C76.2624,8.4 77.2224,9.36 78.4,9.36 C79.5776,9.36 80.5376,8.4 80.5376,7.2224 L80.5376,7.2224 Z M81.664,6.3776 C81.7408,6.6336 81.7664,6.9024 81.7664,7.1712 C81.7664,9.04 80.256,10.5504 78.4,10.5504 C76.544,10.5504 75.0336,9.04 75.0336,7.1712 C75.0336,6.9024 75.0592,6.6336 75.136,6.3776 L72,6.3776 L72,12.0736 C72,12.688 72.512,13.2 73.1264,13.2 L83.6736,13.2 C84.288,13.2 84.8,12.688 84.8,12.0736 L84.8,6.3776 L81.664,6.3776 Z" id="Inst-Icon"></path>
            </g>
        </g>
    </g>
</svg>